<svg version="1" xmlns="http://www.w3.org/2000/svg" width="868" height="868" viewBox="0 0 651.000000 651.000000"><path d="M312.7 1c-4.7 1.2-6.8 2.3-24.5 12.6-7.9 4.6-14.7 8.4-15.2 8.4-.6 0-1 .4-1 1 0 .5-.4 1-.9 1s-17.1 9.4-36.8 20.9c-19.7 11.4-40.1 23.3-45.3 26.3-5.2 3-17.8 10.4-28 16.3s-20.4 11.8-22.7 13.1c-2.3 1.3-9.3 5.4-15.5 9-6.2 3.7-13.1 7.7-15.4 9-46.5 26.2-60.7 37.1-70.9 54.5-3.1 5.3-9 19.9-8 19.9.2 0-.1 1.5-.6 3.2-.5 1.8-1.2 5.8-1.5 8.8-.4 3-.6 68.3-.6 145 0 126.1.2 139.9 1.6 144 2.3 6.2 5.9 12 9.8 15.7 2.7 2.6 23.1 14.8 51.3 30.8 2.2 1.2 9.1 5.2 15.4 8.9 6.2 3.6 11.5 6.6 11.7 6.6.3 0 4.1 2.2 8.5 5 4.4 2.7 8.3 5 8.6 5 .3 0 4.2 2.2 8.7 4.8 10.9 6.5 22.5 13.3 51.1 29.7 13.2 7.6 37.8 21.8 54.6 31.6 33.2 19.2 36 20.3 42.9 16.8 4.3-2.1 7.5-5.5 9-9.3 1.1-3 1.6-272.4.5-279.6-1-5.8-6.2-15.5-10.7-19.7-3.6-3.2-17.7-11.7-43.3-25.9-7.1-3.9-94.5-53.1-97.5-54.9-1.4-.8-15.1-8.6-30.5-17.2-18.3-10.3-29.5-17.2-32.2-20-9.8-9.7-9.5-29.3.5-38.1 9.8-8.6 17.5-8.8 47.2-1 11.8 3.1 33.2 8.7 47.5 12.3 47.1 12 63.8 16.3 78 20 7.7 2 14.7 3.8 15.5 4 .8.2 10.5 2.6 21.6 5.4 11.1 2.8 22.4 5.3 25.2 5.5 11 .8 16.2-1.3 47.2-19 12.9-7.4 20-11.4 25-14.2 3-1.6 10-5.6 15.5-8.7 9.9-5.7 12.3-7 24-13.5 3.3-1.8 7.7-4.4 9.7-5.7 2.1-1.3 4-2.3 4.2-2.3.2 0 5.8-3.1 12.5-6.9 6.6-3.8 14.8-8.5 18.3-10.4 3.5-1.9 18-10.1 32.3-18.2 14.3-8.1 28-15.9 30.5-17.3 2.5-1.3 7.5-4.2 11.2-6.3 3.6-2.2 6.9-3.9 7.3-3.9.3 0 2.9-1.5 5.8-3.3 2.9-1.8 6.9-4.1 9.1-5.2 6.1-3.2 13.4-10.1 14.2-13.8 1.3-5.5-.3-10.4-4.5-13.5-2.8-2-6.3-3.1-41.6-12.2-20-5.2-41.4-10.9-57-15-6.6-1.7-12.8-3.3-13.7-3.5-2.3-.5-36.1-9.3-42.3-11-2.7-.8-11.3-3-19-5-7.7-2-18-4.7-23-6-24-6.4-47.7-12.4-51.4-13.1-1.4-.3-2.8-.7-3.2-1-1.7-1-15.6-1.3-19.2-.4z"/><path d="M534.9 148.2c-9.3 5.5-13 7.7-27.3 15.8-5.3 3-9.6 5.7-9.6 6 0 .3 3.3 2.3 7.3 4.5 13.3 7.1 49.1 27.7 53.4 30.7 5 3.4 7.4 7.5 6.9 11.6-.7 6-3.5 8.8-15.5 15.5-6.4 3.5-13.4 7.5-15.6 8.7-2.2 1.2-9.6 5.4-16.5 9.3-6.9 3.8-14.2 8-16.2 9.3-2.1 1.3-4 2.4-4.2 2.4-.2 0-4.6 2.4-9.8 5.4-5.1 2.9-11.4 6.5-14 8-10.2 5.6-14.8 8.2-29.3 16.4-8.2 4.7-17.5 9.9-20.6 11.6-34.9 19.3-58 32.8-61.8 36.3-5.4 4.7-9.5 11.8-11.1 18.7-.7 3.4-1.1 46.6-1.1 141.9.1 135.3.1 137.1 2.1 141.2 2.2 4.5 7.2 8 13 8.9 3.4.5 11.1-2.6 21-8.5 4.1-2.5 49.1-28.5 90.5-52.4 57.7-33.3 101.1-58.3 104.5-60.2 10.2-5.8 28.5-16.6 29.7-17.6.8-.7 3.4-3.8 5.9-7.1 8.1-10.8 7.6.5 7.6-155.9-.1-94.2-.4-141-1.1-144.7-1.6-8-6.5-17.3-11.4-21.5-4.1-3.5-10.4-7.5-23.4-14.6-3.3-1.9-12.6-7-20.5-11.3-7.8-4.3-16.6-9.1-19.4-10.6l-5-2.8-8.5 5z"/></svg>